<?xml version="1.0" encoding="UTF-8" standalone="no"?>
<!-- Created with Inkscape (http://www.inkscape.org/) -->

<svg
   version="1.1"
   id="svg7088"
   width="208.69565"
   height="154.43478"
   viewBox="0 0 208.69565 154.43478"
   sodipodi:docname="WhiteLogo.svg"
   xml:space="preserve"
   inkscape:version="1.2.2 (732a01da63, 2022-12-09)"
   inkscape:export-filename="DarkLogoPlain1.svg"
   inkscape:export-xdpi="96"
   inkscape:export-ydpi="96"
   xmlns:inkscape="http://www.inkscape.org/namespaces/inkscape"
   xmlns:sodipodi="http://sodipodi.sourceforge.net/DTD/sodipodi-0.dtd"
   xmlns:xlink="http://www.w3.org/1999/xlink"
   xmlns="http://www.w3.org/2000/svg"
   xmlns:svg="http://www.w3.org/2000/svg"><defs
     id="defs7092"><linearGradient
       inkscape:collect="always"
       id="linearGradient1090"><stop
         style="stop-color:#34d399;stop-opacity:1;"
         offset="0"
         id="stop1086" /><stop
         style="stop-color:#064e3b;stop-opacity:1;"
         offset="1"
         id="stop1088" /></linearGradient><linearGradient
       inkscape:collect="always"
       xlink:href="#linearGradient1090"
       id="linearGradient1092"
       x1="35.775864"
       y1="107.18391"
       x2="126.07758"
       y2="39.152298"
       gradientUnits="userSpaceOnUse" /></defs><sodipodi:namedview
     id="namedview7090"
     pagecolor="#ffffff"
     bordercolor="#000000"
     borderopacity="0.25"
     inkscape:showpageshadow="2"
     inkscape:pageopacity="0.0"
     inkscape:pagecheckerboard="0"
     inkscape:deskcolor="#d1d1d1"
     showgrid="false"
     inkscape:zoom="6.96"
     inkscape:cx="77.37069"
     inkscape:cy="77.298851"
     inkscape:window-width="2560"
     inkscape:window-height="1377"
     inkscape:window-x="-8"
     inkscape:window-y="-8"
     inkscape:window-maximized="1"
     inkscape:current-layer="g7094" /><g
     inkscape:groupmode="layer"
     inkscape:label="Image"
     id="g7094"><g
       aria-label="GROUNDED"
       transform="scale(0.96539224,1.0358484)"
       id="text56018"
       style="font-size:37.8536px;font-family:'Noto Sans';-inkscape-font-specification:'Noto Sans';text-align:center;letter-spacing:-0.59px;text-anchor:middle;fill:#f5f5f4;stroke:#ffffff;stroke-width:0;stroke-miterlimit:4.1;stop-color:#000000;fill-opacity:1"><path
         d="m 15.167647,129.73504 h 10.220472 v 13.74086 q -2.157655,0.68136 -4.428871,1.09775 -2.271216,0.37854 -5.14809,0.37854 -6.1322827,0 -9.4255458,-3.63395 -3.2932632,-3.63394 -3.2932632,-10.29617 0,-4.20175 1.6277048,-7.30575 1.6655584,-3.14185 4.8074071,-4.84526 3.1418491,-1.70341 7.6464271,-1.70341 2.195509,0 4.239603,0.45424 2.081948,0.45424 3.78536,1.17346 l -1.665558,3.97463 q -1.324876,-0.60566 -2.990435,-1.0599 -1.665558,-0.45424 -3.482531,-0.45424 -2.763313,0 -4.769553,1.21131 -2.006241,1.21132 -3.1039955,3.44468 -1.0599008,2.19551 -1.0599008,5.18594 0,2.87688 0.8327792,5.07239 0.8327792,2.1955 2.6497521,3.44467 1.816973,1.24917 4.7317,1.24917 1.438437,0 2.42263,-0.15141 0.984194,-0.15142 1.854827,-0.34069 v -6.51081 h -5.450919 z"
         style="font-weight:600;-inkscape-font-specification:'Noto Sans Semi-Bold';fill:#f5f5f4;fill-opacity:1"
         id="path9987" /><path
         d="m 38.955359,117.54618 q 5.337357,0 7.873548,1.96839 2.574045,1.96839 2.574045,5.98087 0,1.96839 -0.757072,3.36897 -0.719218,1.40058 -1.89268,2.34692 -1.173462,0.90849 -2.536191,1.47629 l 7.759988,11.88603 h -5.450919 l -6.472965,-10.67471 h -3.936774 v 10.67471 h -4.845261 v -27.02747 z m -0.302829,4.05034 h -2.536191 v 8.32779 h 2.687605 q 2.990435,0 4.315311,-1.0599 1.362729,-1.09775 1.362729,-3.21756 0,-2.1955 -1.438437,-3.10399 -1.400583,-0.94634 -4.391017,-0.94634 z"
         style="font-weight:600;-inkscape-font-specification:'Noto Sans Semi-Bold';fill:#f5f5f4;fill-opacity:1"
         id="path9989" /><path
         d="m 79.285099,131.02207 q 0,4.20175 -1.400584,7.34359 -1.362729,3.104 -4.201749,4.84526 -2.83902,1.74127 -7.116477,1.74127 -4.31531,0 -7.15433,-1.74127 -2.801166,-1.74126 -4.20175,-4.88311 -1.362729,-3.14185 -1.362729,-7.3436 0,-4.16389 1.362729,-7.26789 1.400584,-3.14185 4.20175,-4.84526 2.83902,-1.74127 7.192184,-1.74127 4.277457,0 7.078623,1.74127 2.83902,1.70341 4.201749,4.84526 1.400584,3.104 1.400584,7.30575 z m -20.327383,0 q 0,4.58028 1.816972,7.19218 1.816973,2.6119 5.791601,2.6119 4.012482,0 5.791601,-2.6119 1.816973,-2.6119 1.816973,-7.19218 0,-4.58029 -1.779119,-7.19219 -1.77912,-2.6119 -5.791601,-2.6119 -3.974628,0 -5.829455,2.6119 -1.816972,2.6119 -1.816972,7.19219 z"
         style="font-weight:600;-inkscape-font-specification:'Noto Sans Semi-Bold';fill:#f5f5f4;fill-opacity:1"
         id="path9991" /><path
         d="m 105.87402,135.03455 q 0,2.80116 -1.21132,5.07238 -1.17346,2.23336 -3.59609,3.55824 -2.422627,1.28702 -6.13228,1.28702 -5.26165,0 -7.98711,-2.72546 -2.725459,-2.76331 -2.725459,-7.26789 v -17.41266 h 4.845261 v 16.92056 q 0,3.33112 1.514144,4.84526 1.514144,1.51415 4.504578,1.51415 3.141849,0 4.542432,-1.62771 1.438434,-1.66556 1.438434,-4.76955 v -16.88271 h 4.80741 z"
         style="font-weight:600;-inkscape-font-specification:'Noto Sans Semi-Bold';fill:#f5f5f4;fill-opacity:1"
         id="path9993" /><path
         d="m 135.11264,144.57365 h -6.01872 L 116.2994,123.37564 h -0.15141 q 0.11356,1.70341 0.18926,3.6718 0.11357,1.93053 0.15142,3.89892 v 13.62729 h -4.35316 v -27.02747 h 5.98086 l 12.75667,21.04661 h 0.11356 q -0.0757,-1.51415 -0.15142,-3.48254 -0.0757,-1.96838 -0.11356,-3.82321 v -13.74086 h 4.39102 z"
         style="font-weight:600;-inkscape-font-specification:'Noto Sans Semi-Bold';fill:#f5f5f4;fill-opacity:1"
         id="path9995" /><path
         d="m 163.66989,130.79494 q 0,6.85151 -3.82321,10.33404 -3.82321,3.44467 -10.67471,3.44467 h -7.60858 v -27.02747 h 8.4035 q 4.1639,0 7.23004,1.51415 3.10399,1.51414 4.76955,4.46672 1.70341,2.91473 1.70341,7.26789 z m -5.07238,0.15142 q 0,-4.84526 -2.23336,-7.11648 -2.19551,-2.27121 -6.39726,-2.27121 h -3.55824 v 18.96465 h 2.91473 q 9.27413,0 9.27413,-9.57696 z"
         style="font-weight:600;-inkscape-font-specification:'Noto Sans Semi-Bold';fill:#f5f5f4;fill-opacity:1"
         id="path9997" /><path
         d="m 184.2022,144.57365 h -15.36856 v -27.02747 h 15.36856 v 4.05034 h -10.5233 v 6.88935 h 9.84194 v 4.05034 h -9.84194 v 7.94926 h 10.5233 z"
         style="font-weight:600;-inkscape-font-specification:'Noto Sans Semi-Bold';fill:#f5f5f4;fill-opacity:1"
         id="path9999" /><path
         d="m 211.47248,130.79494 q 0,6.85151 -3.82322,10.33404 -3.82321,3.44467 -10.67471,3.44467 h -7.60858 v -27.02747 h 8.4035 q 4.1639,0 7.23004,1.51415 3.104,1.51414 4.76955,4.46672 1.70342,2.91473 1.70342,7.26789 z m -5.07239,0.15142 q 0,-4.84526 -2.23336,-7.11648 -2.19551,-2.27121 -6.39726,-2.27121 h -3.55824 v 18.96465 h 2.91473 q 9.27413,0 9.27413,-9.57696 z"
         style="font-weight:600;-inkscape-font-specification:'Noto Sans Semi-Bold';fill:#f5f5f4;fill-opacity:1"
         id="path10001" /></g><path
       id="path55919"
       style="fill:url(#linearGradient1092);fill-opacity:1;stroke-width:0.20722"
       inkscape:label="leaf"
       d="M 107.80469 1.9277344 C 103.36628 7.2178214 99.840898 14.805488 99.195312 21.736328 C 99.195312 23.084437 99.41586 24.390572 99.851562 25.621094 C 100.28351 26.854217 100.91313 27.962159 101.71875 28.910156 C 104.07565 31.920268 106.86031 37.481668 107.58203 38.955078 C 109.5968 34.715587 112.00889 31.103646 113.89062 28.908203 L 113.89258 28.910156 C 114.6962 27.962679 115.32321 26.855778 115.75781 25.621094 C 116.19174 24.38927 116.41211 23.082098 116.41211 21.736328 C 116.31135 15.755875 111.90611 8.0657449 107.80469 1.9277344 z M 54.080078 15.822266 C 50.241901 20.396943 47.193039 26.95763 46.634766 32.951172 C 46.634766 34.116968 46.826349 35.248389 47.203125 36.3125 C 47.576654 37.378859 48.119737 38.336456 48.816406 39.15625 C 50.854575 41.759286 53.262608 46.567645 53.886719 47.841797 C 55.629023 44.175638 57.716497 41.052837 59.34375 39.154297 C 60.038703 38.334954 60.581211 37.378258 60.957031 36.310547 C 61.332279 35.24531 61.523438 34.114946 61.523438 32.951172 C 61.436309 27.779491 57.62685 21.130196 54.080078 15.822266 z M 84.654297 27.625 C 84.608317 35.007061 85.163611 43.851822 88.371094 48.900391 C 89.111797 50.023981 90.014407 50.993581 91.054688 51.783203 C 92.09709 52.574851 93.229423 53.153213 94.421875 53.501953 C 97.201301 54.299246 101.20323 55.98536 105.21875 58.416016 C 105.01037 56.788631 104.2749 50.613119 104.58594 46.802734 C 104.7368 45.56784 104.65208 44.296575 104.33398 43.029297 C 104.02048 41.762123 103.48613 40.549372 102.74414 39.423828 C 98.390459 33.992556 91.271576 29.59885 84.654297 27.625 z M 130.6582 27.625 C 124.04093 29.59885 116.92204 33.992556 112.56836 39.423828 C 111.82636 40.549372 111.29007 41.762123 110.97656 43.029297 C 110.65846 44.296575 110.57376 45.56784 110.72461 46.802734 C 111.03566 50.613119 110.3002 56.788631 110.0918 58.416016 C 114.10734 55.98536 118.10924 54.299246 120.88867 53.501953 C 122.08111 53.153213 123.2154 52.574851 124.25781 51.783203 C 125.2981 50.993581 126.20071 50.023981 126.94141 48.900391 C 130.14888 43.851822 130.7042 35.007061 130.6582 27.625 z M 158.20703 31.144531 C 155.03075 34.930299 152.50693 40.360364 152.04492 45.320312 C 152.04492 46.285066 152.20382 47.220958 152.51562 48.101562 C 152.82473 48.984028 153.27503 49.774706 153.85156 50.453125 C 155.53824 52.607265 157.53039 56.588154 158.04688 57.642578 C 159.48871 54.608652 161.21586 52.02426 162.5625 50.453125 C 163.1376 49.775078 163.58743 48.983191 163.89844 48.099609 C 164.20898 47.218073 164.36523 46.283392 164.36523 45.320312 C 164.29312 41.040494 161.14216 35.537103 158.20703 31.144531 z M 34.060547 38.044922 C 34.020777 44.428662 34.499721 52.075585 37.273438 56.441406 C 37.913971 57.413046 38.696106 58.25271 39.595703 58.935547 C 40.497138 59.620136 41.476632 60.120298 42.507812 60.421875 C 44.91136 61.111345 48.37126 62.569931 51.84375 64.671875 C 51.663538 63.264571 51.027895 57.923989 51.296875 54.628906 C 51.427319 53.561012 51.35513 52.461131 51.080078 51.365234 C 50.808969 50.269427 50.344772 49.221377 49.703125 48.248047 C 45.938214 43.551277 39.782933 39.751836 34.060547 38.044922 z M 73.841797 38.044922 C 68.119411 39.751836 61.96413 43.551277 58.199219 48.248047 C 57.557571 49.221377 57.093374 50.269427 56.822266 51.365234 C 56.547214 52.461131 56.475025 53.561012 56.605469 54.628906 C 56.874448 57.923989 56.238806 63.264571 56.058594 64.671875 C 59.531083 62.569931 62.990984 61.111345 65.394531 60.421875 C 66.425712 60.120298 67.405206 59.620136 68.306641 58.935547 C 69.206238 58.25271 69.988373 57.413046 70.628906 56.441406 C 73.402622 52.075585 73.881567 44.428662 73.841797 38.044922 z M 141.63867 49.535156 C 141.60577 54.818014 142.00343 61.146836 144.29883 64.759766 C 144.8289 65.563846 145.47428 66.257184 146.21875 66.822266 C 146.96472 67.388796 147.7775 67.803164 148.63086 68.052734 C 150.61991 68.623305 153.48377 69.830851 156.35742 71.570312 C 156.20829 70.4057 155.68171 65.984655 155.9043 63.257812 C 156.01226 62.374079 155.95025 61.465501 155.72266 60.558594 C 155.49831 59.65176 155.11693 58.783994 154.58594 57.978516 C 151.47028 54.09171 146.37423 50.947712 141.63867 49.535156 z M 174.56055 49.535156 C 169.82499 50.947712 164.73087 54.09171 161.61523 57.978516 C 161.08423 58.783994 160.70092 59.65176 160.47656 60.558594 C 160.24896 61.465501 160.18893 62.374079 160.29688 63.257812 C 160.51947 65.984655 159.99289 70.4057 159.84375 71.570312 C 162.71742 69.830851 165.58126 68.623305 167.57031 68.052734 C 168.42366 67.803164 169.23449 67.388796 169.98047 66.822266 C 170.72494 66.257184 171.37227 65.563846 171.90234 64.759766 C 174.19772 61.146836 174.59345 54.818014 174.56055 49.535156 z M 84.654297 52.753906 C 84.608317 60.135966 85.163611 68.978774 88.371094 74.027344 C 89.111797 75.150934 90.014407 76.120533 91.054688 76.910156 C 92.09709 77.701804 93.229423 78.280168 94.421875 78.628906 C 97.201301 79.426199 101.20323 81.112313 105.21875 83.542969 C 105.01037 81.915583 104.2749 75.740071 104.58594 71.929688 C 104.7368 70.694792 104.65208 69.425481 104.33398 68.158203 C 104.02048 66.891028 103.48613 65.676325 102.74414 64.550781 C 98.390459 59.119508 91.271576 54.727755 84.654297 52.753906 z M 130.6582 52.753906 C 124.04093 54.727755 116.92204 59.119508 112.56836 64.550781 C 111.82636 65.676325 111.29007 66.891028 110.97656 68.158203 C 110.65846 69.425481 110.57376 70.694792 110.72461 71.929688 C 111.03566 75.740071 110.3002 81.915583 110.0918 83.542969 C 114.10734 81.112313 118.10924 79.426199 120.88867 78.628906 C 122.08111 78.280168 123.2154 77.701804 124.25781 76.910156 C 125.2981 76.120533 126.20071 75.150934 126.94141 74.027344 C 130.14888 68.978774 130.7042 60.135966 130.6582 52.753906 z M 34.060547 60.044922 C 34.020777 66.428662 34.499721 74.075585 37.273438 78.441406 C 37.913971 79.413046 38.696106 80.25271 39.595703 80.935547 C 40.497138 81.620136 41.476632 82.120298 42.507812 82.421875 C 44.91136 83.111345 48.37126 84.569931 51.84375 86.671875 C 51.663538 85.264571 51.027895 79.923989 51.296875 76.628906 C 51.427319 75.561012 51.35513 74.461131 51.080078 73.365234 C 50.808969 72.269427 50.344772 71.221377 49.703125 70.248047 C 45.938214 65.551277 39.782933 61.751836 34.060547 60.044922 z M 73.841797 60.044922 C 68.119411 61.751836 61.96413 65.551277 58.199219 70.248047 C 57.557571 71.221377 57.093374 72.269427 56.822266 73.365234 C 56.547214 74.461131 56.475025 75.561012 56.605469 76.628906 C 56.874448 79.923989 56.238806 85.264571 56.058594 86.671875 C 59.531083 84.569931 62.990984 83.111345 65.394531 82.421875 C 66.425712 82.120298 67.405206 81.620136 68.306641 80.935547 C 69.206238 80.25271 69.988373 79.413046 70.628906 78.441406 C 73.402622 74.075585 73.881567 66.428662 73.841797 60.044922 z M 141.63867 68.085938 C 141.60577 73.368794 142.00343 79.697615 144.29883 83.310547 C 144.8289 84.114626 145.47428 84.807965 146.21875 85.373047 C 146.96472 85.939577 147.7775 86.353946 148.63086 86.603516 C 150.61991 87.174086 153.48377 88.381632 156.35742 90.121094 C 156.20829 88.956481 155.68171 84.535436 155.9043 81.808594 C 156.01226 80.92486 155.95025 80.016282 155.72266 79.109375 C 155.49831 78.202541 155.11693 77.334775 154.58594 76.529297 C 151.47028 72.64249 146.37423 69.498491 141.63867 68.085938 z M 174.56055 68.085938 C 169.82499 69.498491 164.73087 72.64249 161.61523 76.529297 C 161.08423 77.334775 160.70092 78.202541 160.47656 79.109375 C 160.24896 80.016282 160.18893 80.92486 160.29688 81.808594 C 160.51947 84.535436 159.99289 88.956481 159.84375 90.121094 C 162.71742 88.381632 165.58126 87.174086 167.57031 86.603516 C 168.42366 86.353946 169.23449 85.939577 169.98047 85.373047 C 170.72494 84.807965 171.37227 84.114626 171.90234 83.310547 C 174.19772 79.697615 174.59345 73.368794 174.56055 68.085938 z M 84.654297 77.880859 C 84.608317 85.26292 85.163611 94.105732 88.371094 99.154297 C 89.111797 100.27789 90.014407 101.24943 91.054688 102.03906 C 92.09709 102.8307 93.229423 103.40907 94.421875 103.75781 L 94.421875 103.75586 C 97.201301 104.55315 101.20323 106.24123 105.21875 108.67188 C 105.01037 107.0445 104.2749 100.86703 104.58594 97.056641 C 104.7368 95.821742 104.65208 94.552435 104.33398 93.285156 C 104.02048 92.017978 103.48613 90.805226 102.74414 89.679688 C 98.390459 84.248413 91.271576 79.854709 84.654297 77.880859 z M 130.6582 77.880859 C 124.04093 79.854709 116.92204 84.248413 112.56836 89.679688 C 111.82636 90.805226 111.29007 92.017978 110.97656 93.285156 C 110.65846 94.552435 110.57376 95.821742 110.72461 97.056641 C 111.03566 100.86703 110.3002 107.0445 110.0918 108.67188 C 114.10734 106.24123 118.10924 104.55315 120.88867 103.75586 L 120.88867 103.75781 C 122.08111 103.40907 123.2154 102.8307 124.25781 102.03906 C 125.2981 101.24943 126.20071 100.27789 126.94141 99.154297 C 130.14888 94.105732 130.7042 85.26292 130.6582 77.880859 z M 34.060547 82.044922 C 34.020777 88.428662 34.499721 96.075582 37.273438 100.44141 C 37.913971 101.41305 38.696106 102.25271 39.595703 102.93555 C 40.497138 103.62014 41.476632 104.1203 42.507812 104.42188 C 44.91136 105.11134 48.37126 106.56994 51.84375 108.67188 C 51.663538 107.26458 51.027895 101.92399 51.296875 98.628906 C 51.427319 97.561012 51.35513 96.461131 51.080078 95.365234 C 50.808969 94.269427 50.344772 93.221377 49.703125 92.248047 C 45.938214 87.551277 39.782933 83.751836 34.060547 82.044922 z M 73.841797 82.044922 C 68.119411 83.751836 61.96413 87.551277 58.199219 92.248047 C 57.557571 93.221377 57.093374 94.269427 56.822266 95.365234 C 56.547214 96.461131 56.475025 97.561012 56.605469 98.628906 C 56.874448 101.92399 56.238806 107.26458 56.058594 108.67188 C 59.531083 106.56994 62.990984 105.11134 65.394531 104.42188 C 66.425712 104.1203 67.405206 103.62014 68.306641 102.93555 C 69.206238 102.25271 69.988373 101.41305 70.628906 100.44141 C 73.402622 96.075582 73.881567 88.428662 73.841797 82.044922 z M 141.63867 86.636719 C 141.60577 91.919576 142.00343 98.248399 144.29883 101.86133 C 144.8289 102.66541 145.47428 103.35875 146.21875 103.92383 C 146.96472 104.49036 147.7775 104.90473 148.63086 105.1543 C 150.61991 105.72487 153.48377 106.93242 156.35742 108.67188 C 156.20829 107.50727 155.68171 103.08621 155.9043 100.35938 C 156.01226 99.475635 155.95025 98.567065 155.72266 97.660156 C 155.49831 96.753323 155.11693 95.885556 154.58594 95.080078 C 151.47028 91.193271 146.37423 88.049274 141.63867 86.636719 z M 174.56055 86.636719 C 169.82499 88.049274 164.73087 91.193271 161.61523 95.080078 C 161.08423 95.885556 160.70092 96.753323 160.47656 97.660156 C 160.24896 98.567065 160.18893 99.475635 160.29688 100.35938 C 160.51947 103.08621 159.99289 107.50727 159.84375 108.67188 C 162.71742 106.93242 165.58126 105.72487 167.57031 105.1543 C 168.42366 104.90473 169.23449 104.49036 169.98047 103.92383 C 170.72494 103.35875 171.37227 102.66541 171.90234 101.86133 C 174.19772 98.248399 174.59345 91.919576 174.56055 86.636719 z " /></g></svg>
