<?xml version="1.0" encoding="UTF-8" standalone="no"?>
<!-- Created with Inkscape (http://www.inkscape.org/) -->

<svg
   version="1.1"
   id="svg7088"
   width="201.16856"
   height="148.22076"
   viewBox="0 0 201.16857 148.22076"
   xml:space="preserve"
   xmlns:xlink="http://www.w3.org/1999/xlink"
   xmlns="http://www.w3.org/2000/svg"
   xmlns:svg="http://www.w3.org/2000/svg"><defs
     id="defs7092"><linearGradient
       id="linearGradient1090"><stop
         style="stop-color:#6ee7b7;stop-opacity:1;"
         offset="0"
         id="stop1086" /><stop
         style="stop-color:#064e3b;stop-opacity:1;"
         offset="1"
         id="stop1088" /></linearGradient><linearGradient
       xlink:href="#linearGradient1090"
       id="linearGradient1092"
       x1="35.775864"
       y1="107.18391"
       x2="126.07758"
       y2="39.152298"
       gradientUnits="userSpaceOnUse" /></defs><g
     id="g7094"
     transform="translate(-2.9853296,-1.9277343)"><text
       xml:space="preserve"
       style="font-style:normal;font-variant:normal;font-weight:normal;font-stretch:normal;font-size:37.8536px;font-family:'Noto Sans';-inkscape-font-specification:'Noto Sans';text-align:center;letter-spacing:-0.59px;text-anchor:middle;fill:#ffffff;fill-opacity:1;stroke:#ffffff;stroke-width:0;stroke-miterlimit:4.1;stroke-dasharray:none;stop-color:#000000"
       x="107.28241"
       y="144.57365"
       id="text56018"
       transform="scale(0.96539224,1.0358484)"><tspan
         id="tspan56016"
         x="106.98741"
         y="144.57365"
         style="font-style:normal;font-variant:normal;font-weight:600;font-stretch:normal;font-family:'Noto Sans';-inkscape-font-specification:'Noto Sans Semi-Bold';text-align:center;text-anchor:middle;fill:#1c1917;fill-opacity:1;stroke-width:0">GROUNDED</tspan></text><path
       id="path55919"
       style="fill:url(#linearGradient1092);fill-opacity:1;stroke-width:0.20722"
       d="m 107.80469,1.9277344 c -4.43841,5.290087 -7.963792,12.8777536 -8.609378,19.8085936 0,1.348109 0.220548,2.654244 0.65625,3.884766 0.431948,1.233123 1.061568,2.341065 1.867188,3.289062 2.3569,3.010112 5.14156,8.571512 5.86328,10.044922 2.01477,-4.239491 4.42686,-7.851432 6.30859,-10.046875 l 0.002,0.002 c 0.80362,-0.947477 1.43063,-2.054378 1.86523,-3.289062 0.43393,-1.231824 0.6543,-2.538996 0.6543,-3.884766 -0.10076,-5.980453 -4.506,-13.6705831 -8.60742,-19.8085936 z M 54.080078,15.822266 c -3.838177,4.574677 -6.887039,11.135364 -7.445312,17.128906 0,1.165796 0.191583,2.297217 0.568359,3.361328 0.373529,1.066359 0.916612,2.023956 1.613281,2.84375 2.038169,2.603036 4.446202,7.411395 5.070313,8.685547 1.742304,-3.666159 3.829778,-6.78896 5.457031,-8.6875 0.694953,-0.819343 1.237461,-1.776039 1.613281,-2.84375 0.375248,-1.065237 0.566407,-2.195601 0.566407,-3.359375 -0.08713,-5.171681 -3.896588,-11.820976 -7.44336,-17.128906 z M 84.654297,27.625 c -0.04598,7.382061 0.509314,16.226822 3.716797,21.275391 0.740703,1.12359 1.643313,2.09319 2.683594,2.882812 1.042402,0.791648 2.174735,1.37001 3.367187,1.71875 2.779426,0.797293 6.781355,2.483407 10.796875,4.914063 -0.20838,-1.627385 -0.94385,-7.802897 -0.63281,-11.613282 0.15086,-1.234894 0.0661,-2.506159 -0.25196,-3.773437 -0.3135,-1.267174 -0.84785,-2.479925 -1.58984,-3.605469 C 98.390459,33.992556 91.271576,29.59885 84.654297,27.625 Z m 46.003903,0 c -6.61727,1.97385 -13.73616,6.367556 -18.08984,11.798828 -0.742,1.125544 -1.27829,2.338295 -1.5918,3.605469 -0.3181,1.267278 -0.4028,2.538543 -0.25195,3.773437 0.31105,3.810385 -0.42441,9.985897 -0.63281,11.613282 4.01554,-2.430656 8.01744,-4.11677 10.79687,-4.914063 1.19244,-0.34874 2.32673,-0.927102 3.36914,-1.71875 1.04029,-0.789622 1.9429,-1.759222 2.6836,-2.882812 3.20747,-5.048569 3.76279,-13.89333 3.71679,-21.275391 z m 27.54883,3.519531 c -3.17628,3.785768 -5.7001,9.215833 -6.16211,14.175781 0,0.964754 0.1589,1.900646 0.4707,2.78125 0.30911,0.882466 0.75941,1.673144 1.33594,2.351563 1.68668,2.15414 3.67883,6.135029 4.19532,7.189453 1.44183,-3.033926 3.16898,-5.618318 4.51562,-7.189453 0.5751,-0.678047 1.02493,-1.469934 1.33594,-2.353516 0.31054,-0.881536 0.46679,-1.816217 0.46679,-2.779297 -0.0721,-4.279818 -3.22307,-9.783209 -6.1582,-14.175781 z M 34.060547,38.044922 c -0.03977,6.38374 0.439174,14.030663 3.212891,18.396484 0.640533,0.97164 1.422668,1.811304 2.322265,2.494141 0.901435,0.684589 1.880929,1.184751 2.912109,1.486328 2.403548,0.68947 5.863448,2.148056 9.335938,4.25 -0.180212,-1.407304 -0.815855,-6.747886 -0.546875,-10.042969 0.130444,-1.067894 0.05826,-2.167775 -0.216797,-3.263672 -0.271109,-1.095807 -0.735306,-2.143857 -1.376953,-3.117187 -3.764911,-4.69677 -9.920192,-8.496211 -15.642578,-10.203125 z m 39.78125,0 c -5.722386,1.706914 -11.877667,5.506355 -15.642578,10.203125 -0.641648,0.97333 -1.105845,2.02138 -1.376953,3.117187 -0.275052,1.095897 -0.347241,2.195778 -0.216797,3.263672 0.268979,3.295083 -0.366663,8.635665 -0.546875,10.042969 3.472489,-2.101944 6.93239,-3.56053 9.335937,-4.25 1.031181,-0.301577 2.010675,-0.801739 2.91211,-1.486328 0.899597,-0.682837 1.681732,-1.522501 2.322265,-2.494141 2.773716,-4.365821 3.252661,-12.012744 3.212891,-18.396484 z m 67.796873,11.490234 c -0.0329,5.282858 0.36476,11.61168 2.66016,15.22461 0.53007,0.80408 1.17545,1.497418 1.91992,2.0625 0.74597,0.56653 1.55875,0.980898 2.41211,1.230468 1.98905,0.570571 4.85291,1.778117 7.72656,3.517578 -0.14913,-1.164612 -0.67571,-5.585657 -0.45312,-8.3125 0.10796,-0.883733 0.046,-1.792311 -0.18164,-2.699218 -0.22435,-0.906834 -0.60573,-1.7746 -1.13672,-2.580078 -3.11566,-3.886806 -8.21171,-7.030804 -12.94727,-8.44336 z m 32.92188,0 c -4.73556,1.412556 -9.82968,4.556554 -12.94532,8.44336 -0.531,0.805478 -0.91431,1.673244 -1.13867,2.580078 -0.2276,0.906907 -0.28763,1.815485 -0.17968,2.699218 0.22259,2.726843 -0.30399,7.147888 -0.45313,8.3125 2.87367,-1.739461 5.73751,-2.947007 7.72656,-3.517578 0.85335,-0.24957 1.66418,-0.663938 2.41016,-1.230468 0.74447,-0.565082 1.3918,-1.25842 1.92187,-2.0625 2.29538,-3.61293 2.69111,-9.941752 2.65821,-15.22461 z m -89.906253,3.21875 c -0.04598,7.38206 0.509314,16.224868 3.716797,21.273438 0.740703,1.12359 1.643313,2.093189 2.683594,2.882812 1.042402,0.791648 2.174735,1.370012 3.367187,1.71875 2.779426,0.797293 6.781355,2.483407 10.796875,4.914063 -0.20838,-1.627386 -0.94385,-7.802898 -0.63281,-11.613281 0.15086,-1.234896 0.0661,-2.504207 -0.25196,-3.771485 -0.3135,-1.267175 -0.84785,-2.481878 -1.58984,-3.607422 C 98.390459,59.119508 91.271576,54.727755 84.654297,52.753906 Z m 46.003903,0 c -6.61727,1.973849 -13.73616,6.365602 -18.08984,11.796875 -0.742,1.125544 -1.27829,2.340247 -1.5918,3.607422 -0.3181,1.267278 -0.4028,2.536589 -0.25195,3.771485 0.31105,3.810383 -0.42441,9.985895 -0.63281,11.613281 4.01554,-2.430656 8.01744,-4.11677 10.79687,-4.914063 1.19244,-0.348738 2.32673,-0.927102 3.36914,-1.71875 1.04029,-0.789623 1.9429,-1.759222 2.6836,-2.882812 3.20747,-5.04857 3.76279,-13.891378 3.71679,-21.273438 z m -96.597653,7.291016 c -0.03977,6.38374 0.439174,14.030663 3.212891,18.396484 0.640533,0.97164 1.422668,1.811304 2.322265,2.494141 0.901435,0.684589 1.880929,1.184751 2.912109,1.486328 2.403548,0.68947 5.863448,2.148056 9.335938,4.25 -0.180212,-1.407304 -0.815855,-6.747886 -0.546875,-10.042969 0.130444,-1.067894 0.05826,-2.167775 -0.216797,-3.263672 -0.271109,-1.095807 -0.735306,-2.143857 -1.376953,-3.117187 -3.764911,-4.69677 -9.920192,-8.496211 -15.642578,-10.203125 z m 39.78125,0 c -5.722386,1.706914 -11.877667,5.506355 -15.642578,10.203125 -0.641648,0.97333 -1.105845,2.02138 -1.376953,3.117187 -0.275052,1.095897 -0.347241,2.195778 -0.216797,3.263672 0.268979,3.295083 -0.366663,8.635665 -0.546875,10.042969 3.472489,-2.101944 6.93239,-3.56053 9.335937,-4.25 1.031181,-0.301577 2.010675,-0.801739 2.91211,-1.486328 0.899597,-0.682837 1.681732,-1.522501 2.322265,-2.494141 2.773716,-4.365821 3.252661,-12.012744 3.212891,-18.396484 z m 67.796873,8.041016 c -0.0329,5.282856 0.36476,11.611677 2.66016,15.224609 0.53007,0.804079 1.17545,1.497418 1.91992,2.0625 0.74597,0.56653 1.55875,0.980899 2.41211,1.230469 1.98905,0.57057 4.85291,1.778116 7.72656,3.517578 -0.14913,-1.164613 -0.67571,-5.585658 -0.45312,-8.3125 0.10796,-0.883734 0.046,-1.792312 -0.18164,-2.699219 -0.22435,-0.906834 -0.60573,-1.7746 -1.13672,-2.580078 -3.11566,-3.886807 -8.21171,-7.030806 -12.94727,-8.443359 z m 32.92188,0 c -4.73556,1.412553 -9.82968,4.556552 -12.94532,8.443359 -0.531,0.805478 -0.91431,1.673244 -1.13867,2.580078 -0.2276,0.906907 -0.28763,1.815485 -0.17968,2.699219 0.22259,2.726842 -0.30399,7.147887 -0.45313,8.3125 2.87367,-1.739462 5.73751,-2.947008 7.72656,-3.517578 0.85335,-0.24957 1.66418,-0.663939 2.41016,-1.230469 0.74447,-0.565082 1.3918,-1.258421 1.92187,-2.0625 2.29538,-3.612932 2.69111,-9.941753 2.65821,-15.224609 z m -89.906253,9.794921 c -0.04598,7.382061 0.509314,16.224873 3.716797,21.273438 0.740703,1.123593 1.643313,2.095133 2.683594,2.884763 1.042402,0.79164 2.174735,1.37001 3.367187,1.71875 v -0.002 c 2.779426,0.79729 6.781355,2.48537 10.796875,4.91602 -0.20838,-1.62738 -0.94385,-7.80485 -0.63281,-11.615239 0.15086,-1.234899 0.0661,-2.504206 -0.25196,-3.771485 -0.3135,-1.267178 -0.84785,-2.47993 -1.58984,-3.605468 C 98.390459,84.248413 91.271576,79.854709 84.654297,77.880859 Z m 46.003903,0 c -6.61727,1.97385 -13.73616,6.367554 -18.08984,11.798829 -0.742,1.125538 -1.27829,2.33829 -1.5918,3.605468 -0.3181,1.267279 -0.4028,2.536586 -0.25195,3.771485 0.31105,3.810389 -0.42441,9.987859 -0.63281,11.615239 4.01554,-2.43065 8.01744,-4.11873 10.79687,-4.91602 v 0.002 c 1.19244,-0.34874 2.32673,-0.92711 3.36914,-1.71875 1.04029,-0.78963 1.9429,-1.76117 2.6836,-2.884763 3.20747,-5.048565 3.76279,-13.891377 3.71679,-21.273438 z m -96.597653,4.164063 c -0.03977,6.38374 0.439174,14.03066 3.212891,18.396488 0.640533,0.97164 1.422668,1.8113 2.322265,2.49414 0.901435,0.68459 1.880929,1.18475 2.912109,1.48633 2.403548,0.68946 5.863448,2.14806 9.335938,4.25 -0.180212,-1.4073 -0.815855,-6.74789 -0.546875,-10.042974 0.130444,-1.067894 0.05826,-2.167775 -0.216797,-3.263672 -0.271109,-1.095807 -0.735306,-2.143857 -1.376953,-3.117187 -3.764911,-4.69677 -9.920192,-8.496211 -15.642578,-10.203125 z m 39.78125,0 c -5.722386,1.706914 -11.877667,5.506355 -15.642578,10.203125 -0.641648,0.97333 -1.105845,2.02138 -1.376953,3.117187 -0.275052,1.095897 -0.347241,2.195778 -0.216797,3.263672 0.268979,3.295084 -0.366663,8.635674 -0.546875,10.042974 3.472489,-2.10194 6.93239,-3.56054 9.335937,-4.25 1.031181,-0.30158 2.010675,-0.80174 2.91211,-1.48633 0.899597,-0.68284 1.681732,-1.5225 2.322265,-2.49414 2.773716,-4.365828 3.252661,-12.012748 3.212891,-18.396488 z m 67.796873,4.591797 c -0.0329,5.282857 0.36476,11.61168 2.66016,15.224611 0.53007,0.80408 1.17545,1.49742 1.91992,2.0625 0.74597,0.56653 1.55875,0.9809 2.41211,1.23047 1.98905,0.57057 4.85291,1.77812 7.72656,3.51758 -0.14913,-1.16461 -0.67571,-5.58567 -0.45312,-8.3125 0.10796,-0.883745 0.046,-1.792315 -0.18164,-2.699224 -0.22435,-0.906833 -0.60573,-1.7746 -1.13672,-2.580078 -3.11566,-3.886807 -8.21171,-7.030804 -12.94727,-8.443359 z m 32.92188,0 c -4.73556,1.412555 -9.82968,4.556552 -12.94532,8.443359 -0.531,0.805478 -0.91431,1.673245 -1.13867,2.580078 -0.2276,0.906909 -0.28763,1.815479 -0.17968,2.699224 0.22259,2.72683 -0.30399,7.14789 -0.45313,8.3125 2.87367,-1.73946 5.73751,-2.94701 7.72656,-3.51758 0.85335,-0.24957 1.66418,-0.66394 2.41016,-1.23047 0.74447,-0.56508 1.3918,-1.25842 1.92187,-2.0625 2.29538,-3.612931 2.69111,-9.941754 2.65821,-15.224611 z" /></g></svg>
